<svg xmlns="http://www.w3.org/2000/svg" viewBox="0 0 137.87 35.17"><defs><style>.cls-1{fill:#e32131;}.cls-2{fill:#fff;}</style></defs><title>logo_MediaStore0</title><g id="Layer_2" data-name="Layer 2"><g id="Layer_2-2" data-name="Layer 2"><path class="cls-1" d="M17.59,35.17A17.59,17.59,0,1,1,35.17,17.59,17.6,17.6,0,0,1,17.59,35.17m0-33.43A15.85,15.85,0,1,0,33.43,17.59,15.87,15.87,0,0,0,17.59,1.74"/><path class="cls-1" d="M5.59,19.3A1.25,1.25,0,0,0,6.87,18a1.23,1.23,0,0,0-1.26-1.25,1.27,1.27,0,0,0,0,2.54m1.2-4.92a.85.85,0,0,1,.86-.86h.63v7H6.86v-.5h0a1.7,1.7,0,0,1-1.47.63A2.52,2.52,0,0,1,2.89,18,2.5,2.5,0,0,1,5.32,15.4a2.12,2.12,0,0,1,1.46.45V14.38Z"/><path class="cls-1" d="M14,18.09a2.63,2.63,0,1,0-2.61,2.6,2.38,2.38,0,0,0,1.42-.45,2.85,2.85,0,0,0,1-1.27H12.65a.87.87,0,0,0-.57.21,1,1,0,0,1-.71.25,1.12,1.12,0,0,1-1.17-.94h3.74a1.9,1.9,0,0,0,0-.4m-3.76-.61a1.1,1.1,0,0,1,1.13-.85,1.09,1.09,0,0,1,1.13.85Z"/><path class="cls-1" d="M14.46,14.38a.85.85,0,0,1,.86-.86H16v7H14.46Z"/><path class="cls-1" d="M32,18.09a2.63,2.63,0,1,0-2.6,2.6,2.42,2.42,0,0,0,1.42-.45,2.84,2.84,0,0,0,1-1.27H30.63a.92.92,0,0,0-.58.21,1,1,0,0,1-.7.25,1.12,1.12,0,0,1-1.17-.94h3.73a1.9,1.9,0,0,0,0-.4m-3.76-.61a1.18,1.18,0,0,1,2.26,0Z"/><path class="cls-1" d="M16.6,16.4a.85.85,0,0,1,.86-.86h.63V18.3c0,.34,0,1,.8,1,.43,0,.85-.23.85-1V16.4a.86.86,0,0,1,.86-.86h.63v5h-1.4V20h0a1.29,1.29,0,0,1-1.29.69,1.88,1.88,0,0,1-1.47-.63,2,2,0,0,1-.45-1.54V16.4Z"/><path class="cls-1" d="M23.64,20.16a.89.89,0,0,1-.71.37H21.6l1.93-2.63-1.72-2.36H23.6l.76,1.23L25,16a.84.84,0,0,1,.73-.41H27L25.3,17.86l1.93,2.67H25.41l-1-1.55Z"/><path class="cls-2" d="M52.35,23.29v-9h-.07l-3.64,8.9H46.88l-3.64-8.9h-.07v9h-2.5V9.91h3.25l3.8,9.49h.08l3.8-9.49h3.25V23.29Z"/><path class="cls-2" d="M65.8,20.25c-.3,1.94-2.1,3.22-4.54,3.22-3,0-4.89-1.94-4.89-5.1s1.86-5.2,4.79-5.2,4.72,1.92,4.72,5v.82H59v.17a2.21,2.21,0,0,0,2.28,2.36,2,2,0,0,0,2-1.22Zm-6.74-3h4.22a2,2,0,0,0-2.09-2.1A2.12,2.12,0,0,0,59.06,17.28Z"/><path class="cls-2" d="M66.8,18.3c0-3.12,1.6-5.07,4.07-5.07a3.19,3.19,0,0,1,3,1.82h0V9.91h2.71V23.29H74v-1.7h0a3.25,3.25,0,0,1-3.1,1.82C68.39,23.41,66.8,21.45,66.8,18.3Zm2.77,0c0,1.79.86,2.91,2.2,2.91S74,20.1,74,18.32s-.86-2.91-2.21-2.91S69.57,16.54,69.57,18.32Z"/><path class="cls-2" d="M78.32,10.85a1.45,1.45,0,1,1,1.45,1.4A1.4,1.4,0,0,1,78.32,10.85Zm.09,2.5h2.71v9.94H78.41Z"/><path class="cls-2" d="M82.4,20.43c0-1.81,1.39-2.84,3.94-3l2.46-.15v-.65c0-.94-.65-1.45-1.71-1.45a1.6,1.6,0,0,0-1.72,1.21H82.9c.07-1.92,1.79-3.23,4.31-3.23s4.25,1.32,4.25,3.3v6.82H88.85V21.77h-.06a3.42,3.42,0,0,1-3,1.67A3.09,3.09,0,0,1,82.4,20.43Zm6.4-.78v-.72l-2,.13c-1.08.08-1.65.51-1.65,1.22s.61,1.19,1.55,1.19A2,2,0,0,0,88.8,19.65Z"/><path class="cls-2" d="M95.52,19.48c.13,1.1,1.28,1.83,2.77,1.83s2.51-.72,2.51-1.7-.64-1.35-2.25-1.72l-1.75-.38c-2.46-.53-3.68-1.78-3.68-3.74,0-2.46,2.13-4.1,5.12-4.1s5.08,1.61,5.12,4h-2.62c-.1-1.13-1.09-1.82-2.49-1.82s-2.31.66-2.31,1.65c0,.83.65,1.29,2.19,1.65l1.62.34c2.68.57,3.85,1.72,3.85,3.76,0,2.6-2.1,4.24-5.42,4.24s-5.27-1.53-5.36-4Z"/><path class="cls-2" d="M108.41,11.06v2.29h1.83v2h-1.83v4.75c0,.76.37,1.13,1.17,1.13a3.91,3.91,0,0,0,.65-.05v2a7.41,7.41,0,0,1-1.29.11c-2.33,0-3.24-.79-3.24-2.73V15.39h-1.4v-2h1.4V11.06Z"/><path class="cls-2" d="M111.11,18.31c0-3.18,1.92-5.14,4.93-5.14S121,15.12,121,18.31s-1.9,5.16-4.93,5.16S111.11,21.54,111.11,18.31Zm7.1,0c0-1.94-.82-3.08-2.17-3.08s-2.18,1.15-2.18,3.08.82,3.08,2.18,3.08S118.21,20.28,118.21,18.32Z"/><path class="cls-2" d="M122.24,13.35h2.62v1.79h.06a2.34,2.34,0,0,1,2.36-1.91,2.32,2.32,0,0,1,.77.1v2.38a2.84,2.84,0,0,0-1-.15A2,2,0,0,0,125,17.77v5.52h-2.71Z"/><path class="cls-2" d="M137.79,20.25c-.3,1.94-2.1,3.22-4.54,3.22-3,0-4.9-1.94-4.9-5.1s1.87-5.2,4.8-5.2,4.72,1.92,4.72,5v.82H131v.17a2.21,2.21,0,0,0,2.28,2.36,2,2,0,0,0,2-1.22Zm-6.74-3h4.22a2,2,0,0,0-2.09-2.1A2.12,2.12,0,0,0,131.05,17.28Z"/></g></g></svg>